<svg width="15" height="16" viewBox="0 0 15 16" fill="none" xmlns="http://www.w3.org/2000/svg">
<path d="M13.9839 0.405536C13.7247 0.144059 13.3672 0 12.9773 0H11.9058C11.116 0 10.3623 0.59555 10.2258 1.32763L10.1582 1.68968C10.0903 2.05399 10.1817 2.39905 10.4157 2.66133C10.6498 2.9236 10.995 3.068 11.388 3.068H12.7723C12.9643 3.068 13.1501 3.0319 13.3227 2.96783L13.1755 4.15074C13.0339 4.09472 12.8785 4.06489 12.7151 4.06489H11.1358C10.4592 4.06489 9.79465 4.57166 9.65425 5.19451L8.25794 11.3902L1.66988 10.9447C1.31386 10.9207 1.01665 11.0343 0.832384 11.2572C0.659791 11.4661 0.609336 11.7463 0.690219 12.0463L1.45617 14.8847C1.62211 15.4996 2.30562 16 2.97972 16H8.50278H8.58706H11.3984C12.0815 16 12.696 15.4798 12.768 14.8404L13.8487 5.25106C13.8549 5.19625 13.8556 5.14223 13.8536 5.08875L14.2235 2.11513C14.2757 1.98705 14.3089 1.85092 14.3193 1.70973L14.3438 1.37872C14.371 1.01268 14.2431 0.66708 13.9839 0.405536Z" fill="#121A40"/>
</svg>