<svg width="20" height="20" viewBox="0 0 20 20" fill="none" xmlns="http://www.w3.org/2000/svg">
<g id="car-01-stroke-rounded 1">
<path id="Vector" d="M2.08325 10L3.74992 10.8333" stroke="#1D2B69" stroke-width="1.5" stroke-linecap="round" stroke-linejoin="round"/>
<path id="Vector_2" d="M17.9167 10.4167L16.25 10.8334" stroke="#1D2B69" stroke-width="1.5" stroke-linecap="round" stroke-linejoin="round"/>
<path id="Vector_3" d="M6.66675 14.5833L6.87147 14.0715C7.17592 13.3104 7.32815 12.9298 7.64559 12.7149C7.96302 12.5 8.37291 12.5 9.19266 12.5H10.8075C11.6272 12.5 12.0372 12.5 12.3546 12.7149C12.672 12.9298 12.8242 13.3104 13.1287 14.0715L13.3334 14.5833" stroke="#1D2B69" stroke-width="1.25" stroke-linecap="round" stroke-linejoin="round"/>
<path id="Vector_4" d="M1.66675 14.1667V16.5684C1.66675 16.884 1.86737 17.1726 2.18498 17.3137C2.39106 17.4053 2.5879 17.5001 2.82556 17.5001H4.25793C4.4956 17.5001 4.69243 17.4053 4.89851 17.3137C5.21612 17.1726 5.41675 16.884 5.41675 16.5684V15.0001" stroke="#1D2B69" stroke-width="1.25" stroke-linecap="round" stroke-linejoin="round"/>
<path id="Vector_5" d="M14.5833 15.0001V16.5684C14.5833 16.884 14.7839 17.1726 15.1015 17.3137C15.3076 17.4053 15.5044 17.5001 15.7421 17.5001H17.1744C17.4121 17.5001 17.6089 17.4053 17.815 17.3137C18.1326 17.1726 18.3333 16.884 18.3333 16.5684V14.1667" stroke="#1D2B69" stroke-width="1.25" stroke-linecap="round" stroke-linejoin="round"/>
<path id="Vector_6" d="M16.6667 7.08342L17.5001 6.66675" stroke="#1D2B69" stroke-width="1.25" stroke-linecap="round" stroke-linejoin="round"/>
<path id="Vector_7" d="M3.33333 7.08342L2.5 6.66675" stroke="#1D2B69" stroke-width="1.25" stroke-linecap="round" stroke-linejoin="round"/>
<path id="Vector_8" d="M3.75 7.5L4.65692 4.77924C5.0236 3.67921 5.20693 3.12919 5.64342 2.8146C6.07989 2.5 6.65966 2.5 7.8192 2.5H12.1808C13.3403 2.5 13.9201 2.5 14.3566 2.8146C14.7931 3.12919 14.9764 3.67921 15.3431 4.77924L16.25 7.5" stroke="#1D2B69" stroke-width="1.25" stroke-linejoin="round"/>
<path id="Vector_9" d="M3.75008 7.5H16.2501C17.0477 8.34458 18.3334 9.52075 18.3334 10.833V13.7252C18.3334 14.2006 18.0172 14.6007 17.5974 14.6562L15.0001 15H5.00008L2.40271 14.6562C1.98304 14.6007 1.66675 14.2006 1.66675 13.7252V10.833C1.66675 9.52075 2.95241 8.34458 3.75008 7.5Z" stroke="#1D2B69" stroke-width="1.25" stroke-linejoin="round"/>
</g>
</svg>
