<svg width="17" height="16" viewBox="0 0 17 16" fill="none" xmlns="http://www.w3.org/2000/svg">
  <g clip-path="url(#clip0_1946_3755)">
    <path fill-rule="evenodd" clip-rule="evenodd" d="M2.0918 2.71245L2.88095 7.25004H7.75013C8.16434 7.25004 8.50013 7.58582 8.50013 8.00004C8.50013 8.41425 8.16434 8.75004 7.75013 8.75004H2.88095L2.0918 13.2876L14.4295 8.00004L2.0918 2.71245ZM1.48887 8.00004L0.563797 2.68087C0.489012 2.25086 0.628154 1.81135 0.936783 1.50272C1.32457 1.11494 1.90938 1.00231 2.41345 1.21834L15.8158 6.9622C16.2309 7.14013 16.5001 7.54835 16.5001 8.00004C16.5001 8.45172 16.2309 8.85995 15.8158 9.03788L2.41345 14.7817C1.90938 14.9978 1.32457 14.8851 0.936783 14.4974C0.628154 14.1887 0.489012 13.7492 0.563797 13.3192L1.48887 8.00004Z" fill="#8E8E93"/>
  </g>
  <defs>
    <clipPath id="clip0_1946_3755">
      <rect width="16" height="16" fill="white" transform="translate(0.5)"/>
    </clipPath>
  </defs>
</svg>