<svg width="25" height="24" viewBox="0 0 25 24" fill="none" xmlns="http://www.w3.org/2000/svg">
<path d="M17.1334 19.5001C17.0001 19.5006 16.8687 19.4692 16.75 19.4084L12.5 17.1834L8.25005 19.4084C8.11204 19.481 7.95644 19.5134 7.80094 19.5019C7.64544 19.4905 7.49628 19.4356 7.3704 19.3436C7.24453 19.2516 7.147 19.1261 7.08889 18.9814C7.03079 18.8367 7.01444 18.6786 7.04171 18.5251L7.87505 13.8334L4.44171 10.5001C4.33459 10.3932 4.25861 10.2591 4.2219 10.1123C4.1852 9.96552 4.18917 9.81148 4.23338 9.66676C4.28168 9.51865 4.37053 9.38705 4.48984 9.28689C4.60915 9.18672 4.75415 9.12201 4.90838 9.10009L9.65838 8.40842L11.75 4.13342C11.8183 3.99253 11.9248 3.87371 12.0575 3.79057C12.1901 3.70743 12.3435 3.66333 12.5 3.66333C12.6566 3.66333 12.81 3.70743 12.9426 3.79057C13.0753 3.87371 13.1818 3.99253 13.25 4.13342L15.3667 8.40009L20.1167 9.09176C20.2709 9.11368 20.4159 9.17839 20.5353 9.27855C20.6546 9.37872 20.7434 9.51032 20.7917 9.65842C20.8359 9.80315 20.8399 9.95719 20.8032 10.104C20.7665 10.2508 20.6905 10.3849 20.5834 10.4918L17.15 13.8251L17.9834 18.5168C18.0131 18.673 17.9976 18.8345 17.9385 18.9821C17.8794 19.1298 17.7793 19.2575 17.65 19.3501C17.4991 19.4558 17.3174 19.5086 17.1334 19.5001ZM12.5 15.4168C12.6336 15.4134 12.7658 15.445 12.8834 15.5084L16.025 17.1751L15.425 13.6668C15.4018 13.5328 15.4116 13.3952 15.4537 13.2659C15.4959 13.1366 15.569 13.0196 15.6667 12.9251L18.1667 10.4834L14.6667 9.96676C14.5384 9.94092 14.4179 9.8852 14.3151 9.80412C14.2123 9.72304 14.1301 9.61888 14.075 9.50009L12.5 6.37509L10.925 9.50009C10.8648 9.61984 10.7765 9.72328 10.6676 9.80162C10.5588 9.87996 10.4327 9.93089 10.3 9.95009L6.80005 10.4668L9.30005 12.9084C9.39778 13.003 9.47089 13.12 9.51302 13.2492C9.55514 13.3785 9.56499 13.5161 9.54171 13.6501L8.94171 17.1168L12.0834 15.4501C12.2165 15.4006 12.3608 15.3891 12.5 15.4168Z" fill="#F3B807"/>
</svg>
