<svg width="20" height="20" viewBox="0 0 20 20" fill="none" xmlns="http://www.w3.org/2000/svg">
<path d="M14.6334 17.5001C14.5001 17.5006 14.3687 17.4692 14.25 17.4084L10 15.1834L5.75005 17.4084C5.61204 17.481 5.45644 17.5134 5.30094 17.5019C5.14544 17.4905 4.99628 17.4356 4.8704 17.3436C4.74453 17.2516 4.647 17.1261 4.58889 16.9814C4.53079 16.8367 4.51444 16.6786 4.54171 16.5251L5.37505 11.8334L1.94171 8.50009C1.83459 8.39319 1.75861 8.25915 1.7219 8.11233C1.6852 7.96552 1.68917 7.81148 1.73338 7.66676C1.78168 7.51865 1.87053 7.38705 1.98984 7.28689C2.10915 7.18672 2.25415 7.12201 2.40838 7.10009L7.15838 6.40842L9.25005 2.13342C9.31828 1.99253 9.42483 1.87371 9.55747 1.79057C9.69012 1.70743 9.8435 1.66333 10 1.66333C10.1566 1.66333 10.31 1.70743 10.4426 1.79057C10.5753 1.87371 10.6818 1.99253 10.75 2.13342L12.8667 6.40009L17.6167 7.09176C17.7709 7.11368 17.9159 7.17839 18.0353 7.27855C18.1546 7.37872 18.2434 7.51032 18.2917 7.65842C18.3359 7.80315 18.3399 7.95719 18.3032 8.104C18.2665 8.25081 18.1905 8.38486 18.0834 8.49176L14.65 11.8251L15.4834 16.5168C15.5131 16.673 15.4976 16.8345 15.4385 16.9821C15.3794 17.1298 15.2793 17.2575 15.15 17.3501C14.9991 17.4558 14.8174 17.5086 14.6334 17.5001ZM10 13.4168C10.1336 13.4134 10.2658 13.445 10.3834 13.5084L13.525 15.1751L12.925 11.6668C12.9018 11.5328 12.9116 11.3952 12.9537 11.2659C12.9959 11.1366 13.069 11.0196 13.1667 10.9251L15.6667 8.48342L12.1667 7.96676C12.0384 7.94092 11.9179 7.8852 11.8151 7.80412C11.7123 7.72304 11.6301 7.61888 11.575 7.50009L10 4.37509L8.42505 7.50009C8.36475 7.61984 8.27646 7.72328 8.16765 7.80162C8.05884 7.87996 7.93274 7.93089 7.80005 7.95009L4.30005 8.46675L6.80005 10.9084C6.89778 11.003 6.97089 11.12 7.01302 11.2492C7.05514 11.3785 7.06499 11.5161 7.04171 11.6501L6.44171 15.1168L9.58338 13.4501C9.7165 13.4006 9.86075 13.3891 10 13.4168Z" fill="#1D2B69"/>
<path d="M10 4L12.6803 6.31088L15.7063 8.1459L14.3368 11.4091L13.5267 14.8541L10 14.56L6.47329 14.8541L5.66318 11.4091L4.29366 8.1459L7.3197 6.31088L10 4Z" fill="#1D2B69"/>
<path d="M5.22949 9.3147C5.37694 9.43836 5.45659 9.64769 5.65219 9.70358" stroke="#1D2B69" stroke-width="3" stroke-linecap="round"/>
<path d="M6.57959 14.7229C6.62369 14.7946 6.5965 14.943 6.5965 15.0272" stroke="#1D2B69" stroke-width="3" stroke-linecap="round"/>
<path d="M14.4565 9C14.3003 9.02404 14.1468 9.11199 14 9.16908" stroke="#1D2B69" stroke-width="3" stroke-linecap="round"/>
<path d="M12.5457 14.0947C12.5993 14.142 12.6145 14.1857 12.6471 14.2469" stroke="#1D2B69" stroke-width="3" stroke-linecap="round"/>
</svg>
