<svg width="162" height="47" viewBox="0 0 162 47" fill="none" xmlns="http://www.w3.org/2000/svg">
<path d="M56 11.4392H62.6762L69.7274 28.3649H70.0275L77.0787 11.4392H83.7549V36.631H78.504V20.2342H78.2914L71.6653 36.508H68.0896L61.4635 20.1727H61.2509V36.631H56V11.4392Z" fill="url(#paint0_linear_825_1138)"/>
<path d="M96.7916 37C94.8496 37 93.1701 36.5941 91.7532 35.7822C90.3446 34.9622 89.2569 33.8223 88.4901 32.3626C87.7233 30.8948 87.3399 29.1932 87.3399 27.2579C87.3399 25.3062 87.7233 23.6005 88.4901 22.1408C89.2569 20.6729 90.3446 19.533 91.7532 18.7212C93.1701 17.9011 94.8496 17.4911 96.7916 17.4911C98.7336 17.4911 100.409 17.9011 101.817 18.7212C103.234 19.533 104.326 20.6729 105.093 22.1408C105.86 23.6005 106.243 25.3062 106.243 27.2579C106.243 29.1932 105.86 30.8948 105.093 32.3626C104.326 33.8223 103.234 34.9622 101.817 35.7822C100.409 36.5941 98.7336 37 96.7916 37ZM96.8166 32.9408C97.7001 32.9408 98.4377 32.6948 99.0295 32.2027C99.6213 31.7025 100.067 31.0219 100.367 30.1608C100.676 29.2998 100.83 28.3198 100.83 27.221C100.83 26.1221 100.676 25.1421 100.367 24.2811C100.067 23.42 99.6213 22.7394 99.0295 22.2392C98.4377 21.739 97.7001 21.4888 96.8166 21.4888C95.9248 21.4888 95.1746 21.739 94.5662 22.2392C93.9661 22.7394 93.5118 23.42 93.2035 24.2811C92.9034 25.1421 92.7534 26.1221 92.7534 27.221C92.7534 28.3198 92.9034 29.2998 93.2035 30.1608C93.5118 31.0219 93.9661 31.7025 94.5662 32.2027C95.1746 32.6948 95.9248 32.9408 96.8166 32.9408Z" fill="url(#paint1_linear_825_1138)"/>
<path d="M126.991 17.7371L120.277 36.631H114.276L107.562 17.7371H113.188L117.176 31.2556H117.376L121.352 17.7371H126.991Z" fill="url(#paint2_linear_825_1138)"/>
<path d="M129.716 36.631V17.7371H135.042V36.631H129.716ZM132.392 15.3016C131.6 15.3016 130.921 15.0433 130.354 14.5267C129.795 14.0018 129.516 13.3745 129.516 12.6446C129.516 11.923 129.795 11.3039 130.354 10.7872C130.921 10.2624 131.6 10 132.392 10C133.183 10 133.859 10.2624 134.417 10.7872C134.984 11.3039 135.267 11.923 135.267 12.6446C135.267 13.3745 134.984 14.0018 134.417 14.5267C133.859 15.0433 133.183 15.3016 132.392 15.3016Z" fill="url(#paint3_linear_825_1138)"/>
<path d="M162 20.2588H156.524C156.424 19.5617 156.22 18.9426 155.911 18.4014C155.603 17.8519 155.207 17.3845 154.724 16.9991C154.24 16.6137 153.682 16.3185 153.048 16.1134C152.423 15.9084 151.744 15.8059 151.011 15.8059C149.685 15.8059 148.531 16.1298 147.547 16.7777C146.564 17.4173 145.801 18.3522 145.26 19.5822C144.718 20.8041 144.447 22.2884 144.447 24.0351C144.447 25.831 144.718 27.3399 145.26 28.5617C145.81 29.7836 146.576 30.7062 147.56 31.3294C148.543 31.9526 149.681 32.2642 150.973 32.2642C151.698 32.2642 152.369 32.1699 152.986 31.9813C153.611 31.7927 154.165 31.518 154.649 31.1572C155.132 30.7882 155.532 30.3412 155.849 29.8164C156.174 29.2916 156.399 28.6929 156.524 28.0205L162 28.0451C161.858 29.2014 161.504 30.3166 160.937 31.3909C160.379 32.4569 159.625 33.4123 158.674 34.2569C157.733 35.0934 156.607 35.7576 155.299 36.2497C153.999 36.7335 152.527 36.9754 150.886 36.9754C148.602 36.9754 146.56 36.467 144.759 35.4501C142.967 34.4333 141.551 32.9613 140.509 31.0342C139.475 29.1071 138.958 26.774 138.958 24.0351C138.958 21.2879 139.484 18.9508 140.534 17.0237C141.584 15.0966 143.009 13.6287 144.809 12.62C146.61 11.6032 148.635 11.0948 150.886 11.0948C152.369 11.0948 153.744 11.2998 155.011 11.7098C156.286 12.1198 157.416 12.7185 158.399 13.5057C159.383 14.2847 160.183 15.2401 160.8 16.3718C161.425 17.5034 161.825 18.7991 162 20.2588Z" fill="url(#paint4_linear_825_1138)"/>
<path d="M24.0201 0C19.6018 0 16.0201 3.54935 16.0201 7.9277C16.0201 12.3061 12.4183 15.2892 8 15.2892C3.58172 15.2892 0 18.8385 0 23.2169C0 27.5952 3.58172 31.1446 8 31.1446C12.4183 31.1446 16 27.5952 16 23.2169C16 18.8385 19.5817 15.2892 24 15.2892C28.4183 15.2892 32 18.6868 32 23.2169C32 27.747 35.5817 31.1446 40 31.1446C44.4183 31.1446 48 27.5952 48 23.2169C48 18.8385 44.4183 15.2892 40 15.2892C35.5817 15.2892 32.0201 12.3061 32.0201 7.9277C32.0201 3.54935 28.4384 0 24.0201 0Z" fill="url(#paint5_linear_825_1138)"/>
<path d="M24 31.1446C19.5817 31.1446 16 34.6939 16 39.0723C16 43.4506 19.5817 47 24 47C28.4183 47 32 43.4506 32 39.0723C32 34.6939 28.4183 31.1446 24 31.1446Z" fill="url(#paint6_linear_825_1138)"/>
<defs>
<linearGradient id="paint0_linear_825_1138" x1="56" y1="23.5" x2="162" y2="23.5" gradientUnits="userSpaceOnUse">
<stop stop-color="#0D193F"/>
</linearGradient>
<linearGradient id="paint1_linear_825_1138" x1="56" y1="23.5" x2="162" y2="23.5" gradientUnits="userSpaceOnUse">
<stop stop-color="#0D193F"/>
</linearGradient>
<linearGradient id="paint2_linear_825_1138" x1="56" y1="23.5" x2="162" y2="23.5" gradientUnits="userSpaceOnUse">
<stop stop-color="#0D193F"/>
</linearGradient>
<linearGradient id="paint3_linear_825_1138" x1="56" y1="23.5" x2="162" y2="23.5" gradientUnits="userSpaceOnUse">
<stop stop-color="#0D193F"/>
</linearGradient>
<linearGradient id="paint4_linear_825_1138" x1="56" y1="23.5" x2="162" y2="23.5" gradientUnits="userSpaceOnUse">
<stop stop-color="#0D193F"/>
</linearGradient>
<linearGradient id="paint5_linear_825_1138" x1="9.95122" y1="15.9568" x2="55.9067" y2="50.2873" gradientUnits="userSpaceOnUse">
<stop stop-color="#FB215B"/>
</linearGradient>
<linearGradient id="paint6_linear_825_1138" x1="9.95122" y1="15.9568" x2="55.9067" y2="50.2873" gradientUnits="userSpaceOnUse">
<stop stop-color="#FB215B"/>
</linearGradient>
</defs>
</svg>
