<svg width="20" height="20" viewBox="0 0 20 20" fill="none" xmlns="http://www.w3.org/2000/svg">
<path d="M18.3333 10.0001C18.3333 5.39771 14.6023 1.66675 9.99996 1.66675C5.39758 1.66675 1.66663 5.39771 1.66663 10.0001C1.66663 14.6024 5.39758 18.3334 9.99996 18.3334C10.7014 18.3334 11.6666 18.4303 11.6666 17.5001C11.6666 16.9926 11.4026 16.6011 11.1405 16.2121C10.7568 15.643 10.3769 15.0795 10.8333 14.1667C11.3889 13.0557 12.3148 13.0557 13.7345 13.0557C14.4445 13.0557 15.2778 13.0557 16.25 12.9167C18.0008 12.6667 18.3333 11.5904 18.3333 10.0001Z" stroke="#1D2B69" stroke-width="1.15"/>
<path d="M5.83337 12.5018L5.84061 12.4998" stroke="#1D2B69" stroke-width="2" stroke-linecap="round" stroke-linejoin="round"/>
<path d="M7.91663 8.33325C8.60698 8.33325 9.16663 7.77361 9.16663 7.08325C9.16663 6.3929 8.60698 5.83325 7.91663 5.83325C7.22627 5.83325 6.66663 6.3929 6.66663 7.08325C6.66663 7.77361 7.22627 8.33325 7.91663 8.33325Z" stroke="#1D2B69" stroke-width="1.15"/>
<path d="M13.75 9.16675C14.4404 9.16675 15 8.6071 15 7.91675C15 7.22639 14.4404 6.66675 13.75 6.66675C13.0596 6.66675 12.5 7.22639 12.5 7.91675C12.5 8.6071 13.0596 9.16675 13.75 9.16675Z" stroke="#1D2B69" stroke-width="1.15"/>
</svg>