<svg width="42" height="41" viewBox="0 0 42 41" fill="none" xmlns="http://www.w3.org/2000/svg">
<path d="M3.5 37.5799V20.4924" stroke="#E6EFF9" stroke-width="2.25" stroke-linecap="round" stroke-linejoin="round"/>
<path d="M38.5 37.5799V20.4924" stroke="#E6EFF9" stroke-width="2.25" stroke-linecap="round" stroke-linejoin="round"/>
<path d="M21 37.5787V35.8711" stroke="#E6EFF9" stroke-width="2.25" stroke-linecap="round" stroke-linejoin="round"/>
<path d="M21 30.744V29.0361" stroke="#E6EFF9" stroke-width="2.25" stroke-linecap="round" stroke-linejoin="round"/>
<path d="M10.0193 9.65943L11.4717 10.956M11.4717 10.956C11.7503 10.4976 12.2332 9.69456 12.3932 9.19214C13.7912 4.80189 13.915 3.59244 16.0738 3.41968H25.9208C28.0796 3.59244 28.2035 4.80189 29.6014 9.19214C29.7614 9.69456 30.157 10.4976 30.4356 10.956M11.4717 10.956C10.4134 12.6973 9.01127 13.8369 8.80117 15.3413C8.7668 15.5874 8.80117 18.3332 8.80117 20.3256C8.80117 21.8225 10.278 21.7769 11.7169 21.8932C12.6313 21.9674 13.547 22.1293 14.4645 22.1385C19.5498 22.1891 22.912 22.1944 27.9424 22.1408C28.9151 22.1305 29.8952 21.952 30.8647 21.8717C31.9594 21.781 33.1039 21.6605 33.1935 20.3256C33.327 18.3354 33.2278 15.5874 33.1935 15.3413C32.9833 13.8369 31.4939 12.6973 30.4356 10.956M11.4717 10.956H30.4356M30.4356 10.956L32.137 9.65943M9.10633 14.4L11.2212 15.9713M18.4767 17.9565H23.6194M30.8352 15.9324L33.1709 15.2054M12.3932 21.9605L12.2567 24.7685M29.7188 21.9955V24.7685" stroke="#E6EFF9" stroke-width="2.25" stroke-linecap="round"/>
</svg>